<svg xmlns="http://www.w3.org/2000/svg" xmlns:xlink="http://www.w3.org/1999/xlink" width="58.118" height="57.851" viewBox="0 0 58.118 57.851">
  <defs>
    <clipPath id="clip-path">
      <rect id="Retângulo_182" data-name="Retângulo 182" width="58.118" height="57.851" fill="none"/>
    </clipPath>
  </defs>
  <g id="Grupo_49" data-name="Grupo 49" transform="translate(0 0)">
    <g id="Grupo_48" data-name="Grupo 48" transform="translate(0 0)" clip-path="url(#clip-path)">
      <path id="Caminho_143" data-name="Caminho 143" d="M14.49,28.668q0,10.974,0,21.95c.011,4.743,2.436,7.2,7.151,7.22q7.544.033,15.092-.009c4.254-.022,6.875-2.515,6.884-6.695q.052-22.208,0-44.414C43.6,2.488,41.056.054,36.743.024,31.712-.011,26.683,0,21.649.017,16.957.032,14.5,2.51,14.492,7.235q-.02,10.716,0,21.433m34.874-8.1c6.193,5.49,6.176,9.824.119,16.925.675.966,1.355,1.943,2.026,2.908,8.8-4.947,8.818-17.55-.011-23.12-.686,1.055-1.375,2.115-2.135,3.288M5.98,40.494c.775-1.094,1.457-2.059,2.122-3-5.581-6.349-5.587-9.546-.063-17.3C7.372,19.27,6.685,18.321,6,17.372c-7.972,5.891-8.013,16.9-.017,23.122M45.551,25.645c2.682,2.617,1.809,5.014-.656,7.144.649,1.188,1.214,2.217,1.778,3.246,5.692-3.27,6.232-9.791,1.118-13.392l-2.241,3M12.288,32.794c-2.521-3-2.595-3.848-.682-7.333q-1.127-1.417-2.324-2.925C4.74,27.178,5.454,33.608,10.6,35.821c.532-.96,1.075-1.93,1.685-3.027" transform="translate(0.001 -0.001)" fill="#fff"/>
      <path id="Caminho_144" data-name="Caminho 144" d="M6.674,28.668q0-10.716,0-21.433C6.684,2.51,9.14.033,13.835.015,18.867,0,23.9-.011,28.929.024c4.313.03,6.862,2.465,6.873,6.7q.059,22.2,0,44.414c-.011,4.178-2.63,6.673-6.886,6.695q-7.547.039-15.092.009c-4.714-.022-7.142-2.48-7.151-7.222-.013-7.316,0-14.632,0-21.947m24.981.378c0-7.324-.033-14.647.02-21.971.015-2.069-.806-2.979-2.929-2.953q-7.423.094-14.849,0c-2.237-.033-3.084.9-3.077,3.1q.068,21.713,0,43.426c-.007,2.182.834,3.133,3.084,3.1,4.86-.078,9.726-.091,14.586.009,2.391.048,3.22-.945,3.2-3.246-.08-7.151-.03-14.3-.03-21.454" transform="translate(7.815 -0.001)"/>
      <path id="Caminho_145" data-name="Caminho 145" d="M22.733,11.245c.762-1.173,1.448-2.23,2.135-3.288,8.832,5.57,8.816,18.173.011,23.12-.671-.962-1.351-1.939-2.024-2.908,6.054-7.1,6.072-11.433-.122-16.925" transform="translate(26.632 9.321)"/>
      <path id="Caminho_146" data-name="Caminho 146" d="M5.98,31.122C-2.018,24.9-1.974,13.889,6,8l2.039,2.819c-5.524,7.757-5.516,10.953.065,17.3l-2.122,3" transform="translate(0 9.371)"/>
      <path id="Caminho_147" data-name="Caminho 147" d="M21.331,13.429c.827-1.11,1.535-2.056,2.241-3,5.116,3.6,4.573,10.119-1.116,13.392-.565-1.029-1.129-2.061-1.781-3.246,2.467-2.132,3.338-4.53.656-7.144" transform="translate(24.221 12.216)"/>
      <path id="Caminho_148" data-name="Caminho 148" d="M8.906,20.636c-.61,1.1-1.153,2.067-1.685,3.027C2.073,21.451,1.358,15.021,5.9,10.378Q7.1,11.886,8.225,13.3c-1.913,3.485-1.839,4.334.682,7.333" transform="translate(3.382 12.157)"/>
      <path id="Caminho_149" data-name="Caminho 149" d="M29.42,26.827c0,7.151-.052,14.3.026,21.452.026,2.3-.8,3.3-3.192,3.246-4.864-.1-9.726-.085-14.59-.007-2.248.035-3.088-.916-3.079-3.1Q8.646,26.708,8.58,5c0-2.2.84-3.131,3.079-3.1q7.427.111,14.851.007c2.122-.026,2.942.882,2.927,2.953-.052,7.322-.017,14.647-.017,21.971M27.331,39.053a8.318,8.318,0,1,0-8.217,8.289,8.364,8.364,0,0,0,8.217-8.289M19.049,18.435a6.232,6.232,0,0,0,6.191-6.278,6.231,6.231,0,0,0-12.46.072,6.246,6.246,0,0,0,6.269,6.206" transform="translate(10.052 2.22)" fill="#fff"/>
      <path id="Caminho_150" data-name="Caminho 150" d="M26.191,23.441A8.32,8.32,0,1,1,17.9,15.222a8.351,8.351,0,0,1,8.289,8.219M17.92,27.606a4.191,4.191,0,0,0,4.1-4.124,4.134,4.134,0,0,0-4.339-4.124,4.188,4.188,0,0,0-3.97,4.241,4.1,4.1,0,0,0,4.2,4.006" transform="translate(11.191 17.832)"/>
      <path id="Caminho_151" data-name="Caminho 151" d="M16.781,16.181a6.244,6.244,0,0,1-6.267-6.206A6.231,6.231,0,0,1,22.974,9.9a6.235,6.235,0,0,1-6.193,6.278m-.163-3.088c1.06-1.518,2.056-2.328,2.052-3.131a2.62,2.62,0,0,0-1.839-1.867,2.635,2.635,0,0,0-2.009,1.7c-.076.795.856,1.685,1.8,3.3" transform="translate(12.317 4.473)"/>
      <path id="Caminho_152" data-name="Caminho 152" d="M15.678,25.376a4.1,4.1,0,0,1-4.206-4.009,4.19,4.19,0,0,1,3.972-4.239,4.135,4.135,0,0,1,4.339,4.124,4.194,4.194,0,0,1-4.1,4.124m.063-6.979c-1,1.216-2.126,2.009-2.035,2.623.124.832,1.181,1.527,1.837,2.28.714-.7,1.824-1.307,2.013-2.126.139-.6-.919-1.481-1.815-2.777" transform="translate(13.436 20.062)" fill="#fff"/>
      <path id="Caminho_153" data-name="Caminho 153" d="M14.3,10.787c-.94-1.613-1.872-2.5-1.8-3.3a2.635,2.635,0,0,1,2.009-1.7,2.62,2.62,0,0,1,1.839,1.867c0,.8-.992,1.613-2.052,3.131" transform="translate(14.639 6.78)" fill="#fff"/>
      <path id="Caminho_154" data-name="Caminho 154" d="M14.537,17.711c.9,1.3,1.954,2.174,1.815,2.777-.189.819-1.3,1.427-2.013,2.126-.656-.754-1.713-1.448-1.837-2.28-.091-.615,1.036-1.407,2.035-2.623" transform="translate(14.64 20.748)"/>
    </g>
  </g>
</svg>
