<svg xmlns="http://www.w3.org/2000/svg" width="46.624" height="46.625" viewBox="0 0 46.624 46.625">
  <path id="Icon_metro-facebook" data-name="Icon metro-facebook" d="M41.425,1.928H10.341A7.771,7.771,0,0,0,2.571,9.7V40.78a7.771,7.771,0,0,0,7.77,7.771H25.883v-20.4H20.055V22.326h5.828V17.955a7.285,7.285,0,0,1,7.285-7.285h7.285V16.5H33.168a1.457,1.457,0,0,0-1.457,1.457v4.371h8.014l-1.457,5.828H31.711v20.4h9.714a7.771,7.771,0,0,0,7.77-7.771V9.7a7.771,7.771,0,0,0-7.77-7.772Z" transform="translate(-2.571 -1.928)" fill="#173e82"/>
</svg>
