<svg xmlns="http://www.w3.org/2000/svg" width="46.624" height="46.623" viewBox="0 0 46.624 46.623">
  <path id="Icon_awesome-twitter-square" data-name="Icon awesome-twitter-square" d="M41.629,2.25H5a5,5,0,0,0-5,5V43.878a5,5,0,0,0,5,5H41.629a5,5,0,0,0,5-5V7.245A5,5,0,0,0,41.629,2.25ZM36.54,18.777c.021.291.021.593.021.885,0,9.023-6.869,19.42-19.42,19.42a19.33,19.33,0,0,1-10.48-3.06A14.381,14.381,0,0,0,8.3,36.1a13.685,13.685,0,0,0,8.471-2.914,6.835,6.835,0,0,1-6.38-4.735,7.356,7.356,0,0,0,3.081-.125,6.826,6.826,0,0,1-5.464-6.7v-.083a6.821,6.821,0,0,0,3.081.864,6.811,6.811,0,0,1-3.039-5.682,6.74,6.74,0,0,1,.926-3.445,19.381,19.381,0,0,0,14.071,7.139A6.84,6.84,0,0,1,34.7,14.187a13.375,13.375,0,0,0,4.329-1.644,6.808,6.808,0,0,1-3,3.757,13.583,13.583,0,0,0,3.934-1.062A14.367,14.367,0,0,1,36.54,18.777Z" transform="translate(0 -2.25)" fill="#173e82"/>
</svg>
