<svg id="Componente_7_1" data-name="Componente 7 – 1" xmlns="http://www.w3.org/2000/svg" width="60" height="60" viewBox="0 0 60 60">
  <circle id="Elipse_15" data-name="Elipse 15" cx="30" cy="30" r="30" fill="#173e82"/>
  <path id="Icon_awesome-video" data-name="Icon awesome-video" d="M17.9,4.5H2.545A2.545,2.545,0,0,0,0,7.045V22.4a2.545,2.545,0,0,0,2.545,2.545H17.9A2.545,2.545,0,0,0,20.445,22.4V7.045A2.545,2.545,0,0,0,17.9,4.5ZM27.985,6.507l-5.835,4.025v8.38l5.835,4.02a1.707,1.707,0,0,0,2.683-1.374V7.881A1.708,1.708,0,0,0,27.985,6.507Z" transform="translate(13.332 15.277)" fill="#fff"/>
</svg>
