<svg xmlns="http://www.w3.org/2000/svg" width="46.625" height="46.623" viewBox="0 0 46.625 46.623">
  <path id="Icon_zocial-instagram" data-name="Icon zocial-instagram" d="M4.183,46.6a5.542,5.542,0,0,1-2.551-1.449A5.129,5.129,0,0,1,.22,42.719c-.164-.647-.173-1.257-.173-19.25C.038,3.254.011,4.365.539,3.226A5.438,5.438,0,0,1,3.19.593C4.366.074,3.218.1,23.588.129L42.355.147l.583.2a5.526,5.526,0,0,1,3.5,3.5l.2.583L46.655,23.2c.027,20.844.073,19.286-.592,20.635a5.412,5.412,0,0,1-2.3,2.3c-1.33.656.182.61-20.443.6C7.545,46.727,4.648,46.709,4.183,46.6ZM40.5,41.052c.747-.528.765-.583.793-4.054.027-3.38.009-3.553-.547-4.09-.5-.492-.738-.519-4.036-.51l-3.006.009-.41.219a2.24,2.24,0,0,0-.674.638l-.273.4-.009,3.015c-.009,1.649.027,3.152.073,3.325a1.7,1.7,0,0,0,.929,1.148l.456.228,3.161-.027,3.152-.027ZM25.173,32.206a9.042,9.042,0,0,0,6.978-7.015,11.129,11.129,0,0,0,.1-2.961,9.176,9.176,0,0,0-4.674-6.705,9.776,9.776,0,0,0-2.405-.893c-.173-.018-.538-.073-.811-.118a9,9,0,0,0-8.126,3.48,8.913,8.913,0,0,0,.173,11.069,9.084,9.084,0,0,0,6.013,3.271A9.508,9.508,0,0,0,25.173,32.206ZM9.312,26.293a14.457,14.457,0,0,1,1.2-9.247A13.4,13.4,0,0,1,13.239,13.3a14.209,14.209,0,0,1,12.4-4.045A14.432,14.432,0,0,1,37.245,19.825a14.148,14.148,0,0,1,.374,5.1,10.03,10.03,0,0,1-.374,1.968c-.027.046-.018.082.027.091.346.036,3.89.027,3.954-.018.055-.027.073-4.072.064-10.167L41.262,6.679l-.273-.392a2.276,2.276,0,0,0-.683-.6l-.41-.21L23.26,5.5,6.634,5.522l-.374.246a2.4,2.4,0,0,0-.583.592l-.219.346L5.431,16.773c-.009,5.539-.009,10.1.018,10.158a9.8,9.8,0,0,0,2.032.091h2Z" transform="translate(-0.044 -0.117)" fill="#173e82"/>
</svg>
