<svg id="Componente_5_1" data-name="Componente 5 – 1" xmlns="http://www.w3.org/2000/svg" width="60" height="60" viewBox="0 0 60 60">
  <circle id="Elipse_11" data-name="Elipse 11" cx="30" cy="30" r="30" fill="#173e82"/>
  <path id="Icon_awesome-pen-nib" data-name="Icon awesome-pen-nib" d="M22.729,8.4a3.875,3.875,0,0,1,2.622,2.5L31,27.852l-.889.889-9.089-9.089a2.934,2.934,0,1,0-1.37,1.37l9.089,9.089L27.852,31,10.907,25.352a3.875,3.875,0,0,1-2.5-2.622L5.813,13.562l7.75-7.75ZM.851,4.491,4.491.851A2.908,2.908,0,0,1,8.6.851l3.424,3.424L4.275,12.026.851,8.6a2.908,2.908,0,0,1,0-4.112Z" transform="translate(13.6 13)" fill="#fff"/>
</svg>
