<svg id="Componente_16_1" data-name="Componente 16 – 1" xmlns="http://www.w3.org/2000/svg" xmlns:xlink="http://www.w3.org/1999/xlink" width="60" height="60" viewBox="0 0 60 60">
  <defs>
    <clipPath id="clip-path">
      <rect id="Retângulo_522" data-name="Retângulo 522" width="36.933" height="36.177" fill="#fff"/>
    </clipPath>
  </defs>
  <circle id="Elipse_11" data-name="Elipse 11" cx="30" cy="30" r="30" fill="#173e82"/>
  <g id="Grupo_97" data-name="Grupo 97" transform="translate(11.533 11.912)" clip-path="url(#clip-path)">
    <path id="Caminho_93" data-name="Caminho 93" d="M36.934,16v4.039a5.329,5.329,0,0,1-.475.253q-2.12.9-4.249,1.777a.763.763,0,0,0-.488.471c-.193.529-.415,1.049-.651,1.559a.686.686,0,0,0,0,.638c.632,1.413,1.242,2.835,1.863,4.251a.506.506,0,0,1-.146.66c-.795.75-1.578,1.512-2.343,2.294a.638.638,0,0,1-.788.186q-2.207-.88-4.424-1.726a.835.835,0,0,0-.531,0c-.553.2-1.088.448-1.64.649a.784.784,0,0,0-.5.5c-.568,1.426-1.161,2.842-1.741,4.264a.528.528,0,0,1-.578.362c-1.081-.019-2.163-.024-3.244,0a.7.7,0,0,1-.777-.463Q15.319,33.6,14.372,31.5a.889.889,0,0,0-.4-.4c-.533-.244-1.09-.439-1.628-.675a.772.772,0,0,0-.679.011c-1.443.617-2.9,1.216-4.345,1.825a.506.506,0,0,1-.634-.135c-.767-.78-1.544-1.548-2.345-2.294a.633.633,0,0,1-.195-.814q.893-2.143,1.754-4.3a.819.819,0,0,0,0-.535c-.176-.484-.422-.942-.587-1.431a1.1,1.1,0,0,0-.756-.717c-1.4-.525-2.79-1.092-4.185-1.638a.515.515,0,0,1-.37-.57c.021-1.081.026-2.163,0-3.244a.614.614,0,0,1,.435-.675c1.452-.6,2.9-1.206,4.345-1.829a.869.869,0,0,0,.407-.4c.253-.529.454-1.084.7-1.619a.661.661,0,0,0-.009-.6C5.241,10.033,4.626,8.6,4,7.172a.489.489,0,0,1,.146-.627c.8-.758,1.6-1.529,2.369-2.319a.609.609,0,0,1,.758-.171c1.484.585,2.968,1.167,4.459,1.735a.787.787,0,0,0,.5,0c.563-.206,1.107-.46,1.673-.664a.743.743,0,0,0,.469-.486c.559-1.4,1.144-2.8,1.707-4.2A.618.618,0,0,1,16.76,0Q18.382.039,20,0A.634.634,0,0,1,20.7.424c.612,1.42,1.231,2.838,1.87,4.247a.945.945,0,0,0,.428.42c.51.24,1.047.422,1.561.649a.844.844,0,0,0,.745,0c1.433-.617,2.876-1.206,4.311-1.81a.532.532,0,0,1,.666.15c.758.769,1.527,1.533,2.321,2.264a.653.653,0,0,1,.188.848c-.583,1.407-1.146,2.82-1.733,4.227a.735.735,0,0,0,0,.642c.24.525.465,1.054.668,1.593a.657.657,0,0,0,.445.413c.713.251,1.426.5,2.127.786.884.364,1.756.765,2.634,1.148M18.471,23.872A5.784,5.784,0,1,0,12.558,18.1a5.854,5.854,0,0,0,5.913,5.776" transform="translate(0 -0.001)" fill="#fff"/>
  </g>
</svg>
