<svg id="Componente_3_1" data-name="Componente 3 – 1" xmlns="http://www.w3.org/2000/svg" width="34" height="34" viewBox="0 0 34 34">
  <circle id="Elipse_6" data-name="Elipse 6" cx="17" cy="17" r="17" fill="#3d3d3d"/>
  <path id="Icon_awesome-walking" data-name="Icon awesome-walking" d="M9.209,4.25A2.125,2.125,0,1,0,7.084,2.125,2.126,2.126,0,0,0,9.209,4.25Zm4.184,6.6-1.032-.522-.429-1.3a4.827,4.827,0,0,0-4.524-3.36,9.735,9.735,0,0,0-4.13,1.116,4.223,4.223,0,0,0-2.2,2.045l-.3.6a1.421,1.421,0,0,0,.629,1.9A1.4,1.4,0,0,0,3.29,10.7l.3-.6a1.407,1.407,0,0,1,.73-.682L5.5,8.934l-.673,2.687a2.843,2.843,0,0,0,.66,2.6l2.652,2.9a2.857,2.857,0,0,1,.66,1.226l.81,3.245a1.417,1.417,0,0,0,2.749-.686l-.983-3.94a2.832,2.832,0,0,0-.66-1.226L8.7,13.538,9.466,10.5l.243.73a2.823,2.823,0,0,0,1.4,1.638l1.032.522a1.4,1.4,0,0,0,1.882-.633,1.433,1.433,0,0,0-.633-1.9ZM3.259,17.08a2.747,2.747,0,0,1-.629.952L.417,20.249a1.417,1.417,0,0,0,2,2.005l2.63-2.63a2.878,2.878,0,0,0,.629-.952l.6-1.5c-2.448-2.67-1.713-1.851-2.1-2.377l-.916,2.28Z" transform="translate(9.914 5.664)" fill="#fff"/>
</svg>
