<svg xmlns="http://www.w3.org/2000/svg" xmlns:xlink="http://www.w3.org/1999/xlink" width="49.54" height="40.755" viewBox="0 0 49.54 40.755">
  <defs>
    <clipPath id="clip-path">
      <rect id="Retângulo_183" data-name="Retângulo 183" width="49.54" height="40.755" fill="#fff"/>
    </clipPath>
  </defs>
  <g id="Grupo_51" data-name="Grupo 51" transform="translate(0 0)">
    <g id="Grupo_50" data-name="Grupo 50" transform="translate(0 0)" clip-path="url(#clip-path)">
      <path id="Caminho_155" data-name="Caminho 155" d="M6.962,38.825a3.626,3.626,0,0,0-.517-.092C1.718,39.381,2.163,40.225.8,34.786c-.047-.19-.087-.38-.133-.569-1.153-5.065-1.153-5.065,2.863-6.594a21.9,21.9,0,0,0,1.734-3,4.6,4.6,0,0,0,.115-2.187,19.469,19.469,0,1,1,38.454.236c-.144.875-.44,1.667.658,2.352.5.314.51,1.422.816,2.4.824.267,1.925.62,3.022.982a1.591,1.591,0,0,1,1.139,2.122c-.5,2.145-1.081,4.275-1.446,6.442-.348,2.068-1.518,2.493-3.324,2.079-.628-.142-1.266-.237-2.05-.381-.579,2.523-2.364,2.187-4.222,1.795-5.07-1.07-5.112-1.063-4.077-6.177.618-3.048,1.373-6.069,2.081-9.1.231-.983.555-1.809,1.858-1.871.373-.018.954-.816,1.022-1.314.833-6.123-1.143-11.144-6.2-14.772a14.6,14.6,0,0,0-16.328-.357,14.471,14.471,0,0,0-6.848,14.47c.108,1.08.178,2.222,1.817,2.184.34-.008.9.735,1.018,1.214.988,4.16,1.9,8.338,2.833,12.51a1.749,1.749,0,0,1-1.427,2.328c-1.441.376-2.873.8-4.334,1.067s-2.835.183-2.881-1.819m.3-14.916c1.417-.35,1.417-.35,1.2-1.77a16.331,16.331,0,1,1,32.237.01c-.155,1.016-.283,1.873,1.188,1.646,2.1-6.563-.777-14.507-6.825-18.862a18,18,0,0,0-21.1.121c-5.951,4.387-8.814,12.34-6.7,18.855m30.639.877L35.008,38.2c1.757.371,3.193.746,4.653.934a1.488,1.488,0,0,0,1.22-.761c.986-4.008,1.878-8.039,2.848-12.3L37.9,24.786M5.521,25.959c.723,3.421,1.345,6.521,2.045,9.6.91,3.993,1.551,4.3,5.446,2.8.178-.07.424-.079.535-.2.19-.221.466-.546.42-.769-.847-4.154-1.737-8.3-2.658-12.631-2.071.429-3.758.78-5.788,1.2m-2.6,11.754,3.344-.674c-.618-2.8-1.183-5.367-1.79-8.126l-3.282.877C1.788,32.506,2.33,35,2.922,37.713m39.963-.856c3.134,1.243,3.241,1.189,3.947-1.873.188-.816.373-1.633.546-2.451.643-3.03.627-3.049-2.781-3.476-.571,2.6-1.143,5.209-1.713,7.8" transform="translate(0 0.001)" fill="#fff"/>
      <path id="Caminho_156" data-name="Caminho 156" d="M12.672,14.177c0-1.363-.052-2.729.011-4.09.08-1.651,1.047-2.289,2.455-1.534,2.459,1.317,4.89,2.693,7.26,4.16,1.52.941,1.494,2.1,0,3q-3.5,2.1-7.1,4.047c-1.507.82-2.519.227-2.606-1.494-.067-1.359-.013-2.725-.013-4.09m9.213-.043-7.5-4.311v8.7l7.5-4.392" transform="translate(8.045 5.24)" fill="#fff"/>
    </g>
  </g>
</svg>
