<svg id="Componente_16_1" data-name="Componente 16 – 1" xmlns="http://www.w3.org/2000/svg" xmlns:xlink="http://www.w3.org/1999/xlink" width="60" height="60" viewBox="0 0 60 60">
  <defs>
    <clipPath id="clip-path">
      <rect id="Retângulo_187" data-name="Retângulo 187" width="37.37" height="35.512" fill="#fff"/>
    </clipPath>
  </defs>
  <circle id="Elipse_26" data-name="Elipse 26" cx="30" cy="30" r="30" fill="#173e82"/>
  <g id="Grupo_54" data-name="Grupo 54" transform="translate(9 10.468)">
    <g id="Grupo_53" data-name="Grupo 53" clip-path="url(#clip-path)">
      <path id="Caminho_157" data-name="Caminho 157" d="M0,14.18A18.919,18.919,0,0,1,.507,12.3,7.01,7.01,0,0,1,4.024,8.423a.883.883,0,0,0,.553-.71,7.289,7.289,0,0,1,7.129-5.983,6.78,6.78,0,0,1,3.268.762.494.494,0,0,0,.661-.074A9.42,9.42,0,0,1,22.759.024a9.563,9.563,0,0,1,8.235,6.46.848.848,0,0,0,.65.654,8.09,8.09,0,0,1-1.556,15.783,7.266,7.266,0,0,1-3.849-.58.759.759,0,0,0-.967.192,10.285,10.285,0,0,1-8.331,2.589,10.21,10.21,0,0,1-6.314-3.182.6.6,0,0,0-.769-.186,7.3,7.3,0,0,1-9.781-5.8A3.076,3.076,0,0,0,0,15.64V14.18m29.087,6.583a5.741,5.741,0,0,0,4.259-1.637,5.619,5.619,0,0,0,1.589-5.879,5.654,5.654,0,0,0-4.5-4.154A1.5,1.5,0,0,1,29.1,7.831a6.9,6.9,0,0,0-2.567-4.043,7.293,7.293,0,0,0-9.991.8c-.683.726-1.07.784-1.9.235a5.441,5.441,0,0,0-2.623-.885A5.108,5.108,0,0,0,6.659,8.6a1.524,1.524,0,0,1-1.106,1.544,5.093,5.093,0,1,0,3.961,9.37c1.331-.7,1.636-.341,2.334.511A7.857,7.857,0,0,0,16.4,22.8,8.2,8.2,0,0,0,24.4,20.333c.751-.773,1.067-.836,2-.322a5.7,5.7,0,0,0,2.684.752" transform="translate(0 -0.001)" fill="#fff"/>
      <path id="Caminho_158" data-name="Caminho 158" d="M242.765,276.827a4.011,4.011,0,1,1,4-4.015,4.012,4.012,0,0,1-4,4.015m-.005-2.193a1.817,1.817,0,1,0-1.826-1.828,1.823,1.823,0,0,0,1.826,1.828" transform="translate(-216.916 -244.232)" fill="#fff"/>
      <path id="Caminho_159" data-name="Caminho 159" d="M340.242,323.314a3.277,3.277,0,1,1,3.286-3.261,3.293,3.293,0,0,1-3.286,3.261m-.011-2.19a1.086,1.086,0,0,0,1.107-1.069,1.093,1.093,0,0,0-2.185-.028,1.084,1.084,0,0,0,1.078,1.1" transform="translate(-306.158 -287.802)" fill="#fff"/>
    </g>
  </g>
</svg>
