<svg xmlns="http://www.w3.org/2000/svg" xmlns:xlink="http://www.w3.org/1999/xlink" width="51.706" height="47.314" viewBox="0 0 51.706 47.314">
  <defs>
    <clipPath id="clip-path">
      <rect id="Retângulo_181" data-name="Retângulo 181" width="51.706" height="47.314" fill="none"/>
    </clipPath>
  </defs>
  <g id="Grupo_47" data-name="Grupo 47" transform="translate(0 0)">
    <g id="Grupo_46" data-name="Grupo 46" transform="translate(0 0)" clip-path="url(#clip-path)">
      <path id="Caminho_142" data-name="Caminho 142" d="M51.681,35.007c0,1.745.065,3.495-.013,5.236a7.364,7.364,0,0,1-14.684.455c-.216-3.782-.167-7.59-.013-11.377.1-2.507,1.548-4.34,3.659-5.739a3.059,3.059,0,0,0,1.32-2,16.144,16.144,0,1,0-32.26-.714,2.431,2.431,0,0,0,1.41,2.5,7.04,7.04,0,0,1,3.707,6.394c.046,3.263.067,6.528-.008,9.789a7.405,7.405,0,0,1-7.355,7.479,7.309,7.309,0,0,1-7.4-7.393C-.034,36.306.015,32.966.029,29.627A6.449,6.449,0,0,1,3.45,23.585c1.506-.8,1.713-1.789,1.734-3.257A20.525,20.525,0,0,1,19.819.913,20.785,20.785,0,0,1,42.633,8.541a19.337,19.337,0,0,1,3.906,11.907c-.019,1.55.233,2.589,1.784,3.451a6.535,6.535,0,0,1,3.353,5.871c.034,1.745.006,3.491.006,5.236" transform="translate(0 0)"/>
    </g>
  </g>
</svg>
