<svg id="Componente_3_1" data-name="Componente 3 – 1" xmlns="http://www.w3.org/2000/svg" width="60" height="60" viewBox="0 0 60 60">
  <circle id="Elipse_4" data-name="Elipse 4" cx="30" cy="30" r="30" fill="#173e82"/>
  <path id="Icon_awesome-walking" data-name="Icon awesome-walking" d="M16.25,7.5A3.75,3.75,0,1,0,12.5,3.75,3.751,3.751,0,0,0,16.25,7.5Zm7.383,11.648-1.82-.922-.758-2.3A8.518,8.518,0,0,0,13.07,10c-2.812-.008-4.367.789-7.289,1.969A7.452,7.452,0,0,0,1.9,15.578l-.523,1.062a2.508,2.508,0,0,0,1.109,3.352A2.466,2.466,0,0,0,5.8,18.875l.523-1.063a2.483,2.483,0,0,1,1.289-1.2l2.094-.844L8.523,20.508A5.017,5.017,0,0,0,9.687,25.1l4.68,5.109a5.042,5.042,0,0,1,1.164,2.164l1.43,5.727a2.5,2.5,0,1,0,4.852-1.211l-1.734-6.953a5,5,0,0,0-1.164-2.164l-3.555-3.883L16.7,18.523l.43,1.289A4.982,4.982,0,0,0,19.609,22.7l1.82.922a2.466,2.466,0,0,0,3.32-1.117,2.529,2.529,0,0,0-1.117-3.359ZM5.75,30.141A4.848,4.848,0,0,1,4.64,31.82L.734,35.734a2.5,2.5,0,1,0,3.531,3.539l4.641-4.641a5.078,5.078,0,0,0,1.109-1.68l1.055-2.641c-4.32-4.711-3.023-3.266-3.7-4.2L5.75,30.141Z" transform="translate(17.496 9.997)" fill="#fff"/>
</svg>
