<svg id="Componente_3_1" data-name="Componente 3 – 1" xmlns="http://www.w3.org/2000/svg" width="60" height="60" viewBox="0 0 60 60">
  <circle id="Elipse_3" data-name="Elipse 3" cx="30" cy="30" r="30" fill="#173e82"/>
  <path id="Icon_awesome-font" data-name="Icon awesome-font" d="M32.545,31.179H30.781L20.934,3.884A2.411,2.411,0,0,0,18.651,2.25H15.1a2.411,2.411,0,0,0-2.283,1.634L2.969,31.179H1.205A1.205,1.205,0,0,0,0,32.384v2.411A1.205,1.205,0,0,0,1.205,36h9.643a1.205,1.205,0,0,0,1.205-1.205V32.384a1.205,1.205,0,0,0-1.205-1.205H9.373l1.755-4.821H22.622l1.755,4.821H22.9A1.205,1.205,0,0,0,21.7,32.384v2.411A1.205,1.205,0,0,0,22.9,36h9.643a1.205,1.205,0,0,0,1.205-1.205V32.384A1.205,1.205,0,0,0,32.545,31.179ZM13.323,20.33l3.552-9.755,3.552,9.755Z" transform="translate(13.125 9)" fill="#fff"/>
</svg>
