<svg id="Componente_2_1" data-name="Componente 2 – 1" xmlns="http://www.w3.org/2000/svg" width="60" height="60" viewBox="0 0 60 60">
  <circle id="Elipse_3" data-name="Elipse 3" cx="30" cy="30" r="30" fill="#173e82"/>
  <path id="Icon_awesome-book-reader" data-name="Icon awesome-book-reader" d="M22,6a6,6,0,1,0-6,6A6,6,0,0,0,22,6Zm-7.4,9.069C10.891,12.8,4.885,12.175,1.862,12A1.729,1.729,0,0,0,0,13.7V27.621a1.719,1.719,0,0,0,1.656,1.691c2.729.143,8.249.667,12.065,2.589A.87.87,0,0,0,15,31.159V15.785a.832.832,0,0,0-.4-.716ZM30.137,12c-3.022.171-9.029.8-12.736,3.066a.847.847,0,0,0-.4.727V31.157a.873.873,0,0,0,1.284.744c3.815-1.92,9.332-2.444,12.06-2.587A1.72,1.72,0,0,0,32,27.622V13.7A1.73,1.73,0,0,0,30.137,12Z" transform="translate(14 14)" fill="#fff"/>
</svg>
